<svg width="24" height="24" viewBox="0 0 24 24" fill="none" xmlns="http://www.w3.org/2000/svg">
<path d="M13.1709 4C13.4741 4.00003 13.7405 4.20083 13.8242 4.49219L14.2246 5.88965C14.2564 5.99829 14.3416 6.08327 14.4502 6.11523C14.8607 6.23966 15.2579 6.4043 15.6367 6.60547C15.7358 6.65953 15.8562 6.65893 15.9551 6.60449L17.2188 5.90234C17.4841 5.75503 17.8157 5.80195 18.0303 6.0166L18.9834 6.96973C19.198 7.18432 19.2439 7.51589 19.0967 7.78125L18.3955 9.04492C18.3412 9.14365 18.3407 9.26326 18.3945 9.3623C18.5956 9.74133 18.7593 10.1392 18.8838 10.5498C18.9156 10.6584 19.0008 10.7435 19.1094 10.7754L20.5078 11.1758C20.7992 11.2595 20.9999 11.5259 21 11.8291V13.1709C20.9999 13.474 20.7991 13.7405 20.5078 13.8242L19.1104 14.2246C19.0017 14.2564 18.9167 14.3415 18.8848 14.4502C18.7603 14.8607 18.5957 15.2578 18.3945 15.6367C18.3405 15.7358 18.3411 15.8562 18.3955 15.9551L19.0967 17.2197C19.2438 17.4851 19.1979 17.8157 18.9834 18.0303L18.0303 18.9834C17.8157 19.198 17.4841 19.2439 17.2188 19.0967L15.9551 18.3955C15.8562 18.3411 15.7358 18.3406 15.6367 18.3945C15.2579 18.5957 14.8607 18.7604 14.4502 18.8848C14.3416 18.9167 14.2564 19.0017 14.2246 19.1104L13.8242 20.5078C13.7405 20.7991 13.474 20.9999 13.1709 21H11.8291C11.5259 20.9999 11.2595 20.7992 11.1758 20.5078L10.7754 19.1104C10.7435 19.0018 10.6583 18.9168 10.5498 18.8848C10.1394 18.7604 9.742 18.5957 9.36328 18.3945C9.26416 18.3405 9.14383 18.3411 9.04492 18.3955L7.78027 19.0967C7.51493 19.2438 7.18426 19.198 6.96973 18.9834L6.0166 18.0303C5.80202 17.8157 5.75613 17.4841 5.90332 17.2188L6.60449 15.9551C6.65881 15.8564 6.6592 15.7367 6.60547 15.6377C6.40433 15.2587 6.24071 14.8608 6.11621 14.4502C6.08438 14.3415 5.99839 14.2564 5.88965 14.2246L4.49219 13.8242C4.20086 13.7405 4.00012 13.474 4 13.1709V11.8291C4.00002 11.5259 4.20081 11.2595 4.49219 11.1758L5.88965 10.7754C5.99831 10.7436 6.0833 10.6584 6.11523 10.5498C6.23956 10.1394 6.40328 9.74194 6.60449 9.36328C6.65862 9.26418 6.65892 9.14386 6.60449 9.04492L5.90332 7.78125C5.75597 7.51584 5.80191 7.18435 6.0166 6.96973L6.96973 6.0166C7.1843 5.80199 7.51587 5.75512 7.78125 5.90234L9.04492 6.60449C9.14382 6.6589 9.26415 6.65946 9.36328 6.60547C9.74201 6.40429 10.1394 6.23963 10.5498 6.11523C10.6584 6.08327 10.7436 5.99825 10.7754 5.88965L11.1758 4.49219C11.2595 4.20083 11.5259 4.00004 11.8291 4H13.1709ZM12.5 9.44043C10.8101 9.4405 9.4405 10.8101 9.44043 12.5C9.44043 14.1899 10.8101 15.5605 12.5 15.5605C13.3116 15.5605 14.0902 15.2379 14.6641 14.6641C15.2379 14.0902 15.5605 13.3116 15.5605 12.5C15.5605 10.8101 14.1899 9.44043 12.5 9.44043Z" fill="#333333"/>
</svg>
